<svg width="19" height="19" viewBox="0 0 19 19" fill="none" xmlns="http://www.w3.org/2000/svg">
<path d="M6.83301 9.33301C6.83301 9.99601 7.0964 10.6319 7.56524 11.1008C8.03408 11.5696 8.66997 11.833 9.33301 11.833C9.99601 11.833 10.6319 11.5696 11.1008 11.1008C11.5696 10.6319 11.833 9.99601 11.833 9.33301C11.833 8.67001 11.5696 8.03411 11.1008 7.56521C10.6319 7.09641 9.99601 6.83301 9.33301 6.83301C8.66997 6.83301 8.03408 7.09641 7.56524 7.56521C7.0964 8.03411 6.83301 8.67001 6.83301 9.33301Z" stroke="#919BB3" stroke-width="2" stroke-linecap="round" stroke-linejoin="round"/>
<path d="M2.66602 9.33272C2.66602 11.1008 3.3684 12.7965 4.61864 14.0467C5.86888 15.297 7.56457 15.9993 9.33268 15.9993C11.1008 15.9993 12.7965 15.297 14.0467 14.0467C15.297 12.7965 15.9993 11.1008 15.9993 9.33272C15.9993 7.56462 15.297 5.86892 14.0467 4.61862C12.7965 3.36842 11.1008 2.66602 9.33268 2.66602C7.56457 2.66602 5.86888 3.36842 4.61864 4.61862C3.3684 5.86892 2.66602 7.56462 2.66602 9.33272Z" stroke="#919BB3" stroke-width="2" stroke-linecap="round" stroke-linejoin="round"/>
<path d="M9.33301 1V2.6667" stroke="#919BB3" stroke-width="2" stroke-linecap="round" stroke-linejoin="round"/>
<path d="M9.33301 16V17.6667" stroke="#919BB3" stroke-width="2" stroke-linecap="round" stroke-linejoin="round"/>
<path d="M16 9.33301H17.6667" stroke="#919BB3" stroke-width="2" stroke-linecap="round" stroke-linejoin="round"/>
<path d="M1 9.33301H2.66667" stroke="#919BB3" stroke-width="2" stroke-linecap="round" stroke-linejoin="round"/>
</svg>
