<svg width="19" height="18" viewBox="0 0 19 18" fill="none" xmlns="http://www.w3.org/2000/svg">
<path d="M9.38338 0.0067277L9.5 0C10.0128 0 10.4355 0.38604 10.4933 0.883379L10.5 1V8H17.5C18.0128 8 18.4355 8.38604 18.4933 8.88338L18.5 9C18.5 9.51284 18.114 9.93551 17.6166 9.99327L17.5 10H10.5V17C10.5 17.5128 10.114 17.9355 9.61662 17.9933L9.5 18C8.98716 18 8.56449 17.614 8.50673 17.1166L8.5 17V10H1.5C0.987164 10 0.564493 9.61396 0.506728 9.11662L0.5 9C0.5 8.48716 0.88604 8.06449 1.38338 8.00673L1.5 8H8.5V1C8.5 0.487164 8.88604 0.0644928 9.38338 0.0067277L9.5 0L9.38338 0.0067277Z" fill="white"/>
</svg>
