<svg xmlns="http://www.w3.org/2000/svg" width="128" height="128" viewBox="0 0 24 24"><g fill-rule="evenodd"><path d="M5.791 8.356C5.791 4.993 8.313 2.25 12 2.25s6.209 2.743 6.209 6.106c0 .374-.031.769-.09 1.173.324.334.54.782.54 1.299 0 .944-.69 1.624-1.501 1.877-.476 1.027-1.112 2.01-1.895 2.77-.876.85-1.979 1.459-3.263 1.459-1.284 0-2.387-.61-3.263-1.46-.783-.76-1.419-1.742-1.895-2.77-.812-.252-1.501-.932-1.501-1.876 0-.517.216-.965.54-1.3a8.184 8.184 0 0 1-.09-1.172ZM12 3.75c-2.84 0-4.709 2.053-4.709 4.606 0 .4.046.852.138 1.335a.75.75 0 0 1-.343.78c-.188.115-.245.257-.245.357 0 .14.156.43.615.48a.75.75 0 0 1 .608.453c.435 1.026 1.025 1.965 1.717 2.637.69.67 1.438 1.036 2.219 1.036.78 0 1.529-.366 2.218-1.036.692-.672 1.283-1.611 1.717-2.638a.75.75 0 0 1 .61-.452c.457-.05.614-.34.614-.48 0-.1-.057-.241-.245-.357a.75.75 0 0 1-.344-.78 7.19 7.19 0 0 0 .139-1.335c0-2.553-1.869-4.606-4.71-4.606ZM1.916 21.035A5.75 5.75 0 0 1 7.32 17.25h9.36a5.75 5.75 0 0 1 5.404 3.785l.133.367a1.75 1.75 0 0 1-1.645 2.348H3.428a1.75 1.75 0 0 1-1.645-2.348l.134-.367ZM7.32 18.75a4.25 4.25 0 0 0-3.994 2.798l-.133.367a.25.25 0 0 0 .235.335h17.144a.25.25 0 0 0 .235-.335l-.133-.367a4.25 4.25 0 0 0-3.994-2.798H7.32Z"/><path d="M10.5 21.25A3.25 3.25 0 0 1 7.25 18h1.5c0 .967.783 1.75 1.75 1.75h3A1.75 1.75 0 0 0 15.25 18h1.5a3.25 3.25 0 0 1-3.25 3.25h-3ZM10.201 7.75c-.283 0-.559.097-.78.274L7.468 9.586a.75.75 0 0 1-.937-1.172l1.953-1.561A2.75 2.75 0 0 1 10.2 6.25h3.597c.625 0 1.23.213 1.718.603l1.952 1.561a.75.75 0 1 1-.937 1.172L14.58 8.024a1.25 1.25 0 0 0-.78-.274H10.2Z"/><path d="M12 1.75A7.25 7.25 0 0 0 4.75 9v2a.75.75 0 0 1-1.5 0V9a8.75 8.75 0 0 1 17.5 0v2a.75.75 0 0 1-1.5 0V9A7.25 7.25 0 0 0 12 1.75Z"/><path d="M3.25 11A2.25 2.25 0 0 1 5.5 8.75H6a.75.75 0 0 1 .75.75v3a.75.75 0 0 1-.75.75h-.5A2.25 2.25 0 0 1 3.25 11Zm2-.707a.75.75 0 0 0 0 1.414v-1.414ZM20.66 11a2.25 2.25 0 0 0-2.25-2.25h-.5a.75.75 0 0 0-.75.75v3c0 .414.335.75.75.75h.5A2.25 2.25 0 0 0 20.66 11Zm-2-.707a.75.75 0 0 1 0 1.414v-1.414Z"/><path d="M18 11.75a.75.75 0 0 1 .75.75v.5A1.75 1.75 0 0 1 17 14.75h-4.5a.75.75 0 0 1 0-1.5H17a.25.25 0 0 0 .25-.25v-.5a.75.75 0 0 1 .75-.75Z"/></g></svg>